<svg version="1.1" viewBox="0.0 0.0 960.0 960.0" fill="none" stroke="none" stroke-linecap="square" stroke-miterlimit="10" xmlns:xlink="http://www.w3.org/1999/xlink" xmlns="http://www.w3.org/2000/svg"><clipPath id="p.0"><path d="m0 0l960.0 0l0 960.0l-960.0 0l0 -960.0z" clip-rule="nonzero"/></clipPath><g clip-path="url(#p.0)"><path fill="#000000" fill-opacity="0.0" d="m0 0l960.0 0l0 960.0l-960.0 0z" fill-rule="evenodd"/><path fill="#f1c232" d="m480.0 0l0 0c265.09668 0 480.0 214.90332 480.0 480.0q0 240.0 0 480.0q-240.0 0 -480.0 0l0 0c-265.09668 0 -480.0 -214.90332 -480.0 -480.0l0 0c0 -265.09668 214.90332 -480.0 480.0 -480.0z" fill-rule="evenodd"/><path fill="#000000" d="m480.0 64.25197l0 0c229.61127 0 415.74805 186.13673 415.74805 415.74805q0 207.87402 0 415.74805q-207.87402 0 -415.74805 0l0 0c-229.6113 0 -415.74805 -186.13678 -415.74805 -415.74805l0 0c0 -229.6113 186.13673 -415.74805 415.74805 -415.74805z" fill-rule="evenodd"/><path stroke="#000000" stroke-width="1.0" stroke-linejoin="round" stroke-linecap="butt" d="m480.0 64.25197l0 0c229.61127 0 415.74805 186.13673 415.74805 415.74805q0 207.87402 0 415.74805q-207.87402 0 -415.74805 0l0 0c-229.6113 0 -415.74805 -186.13678 -415.74805 -415.74805l0 0c0 -229.6113 186.13673 -415.74805 415.74805 -415.74805z" fill-rule="evenodd"/><path fill="#f1c232" d="m480.0 102.47244l0 0c208.50269 0 377.5276 169.02484 377.5276 377.52756q0 188.7638 0 377.5276q-188.7638 0 -377.5276 0l0 0c-208.50272 0 -377.52756 -169.0249 -377.52756 -377.5276l0 0c0 -208.50272 169.02484 -377.52756 377.52756 -377.52756z" fill-rule="evenodd"/></g></svg>